<svg xmlns="http://www.w3.org/2000/svg" width="512" height="512" viewBox="0 0 512 512"><path d="M196.637 230.779S109.357 124.7 153.47 81.862c32.7-31.75 78.094-12.847 84.568 21.544 7.81 41.464-41.402 127.373-41.402 127.373M315.363 229.154s87.283-106.078 43.164-148.916c-32.697-31.751-78.09-12.847-84.563 21.543-7.812 41.464 41.399 127.373 41.399 127.373" fill="#61704b"/><path d="M293.907 342.424c-6.514 0-11.792-5.277-11.792-11.791s5.278-11.794 11.792-11.794c6.511 0 11.791 5.28 11.791 11.794s-5.28 11.79-11.79 11.79m-80.265 0c-6.511 0-11.791-5.276-11.791-11.79 0-6.514 5.28-11.794 11.79-11.794 6.515 0 11.795 5.28 11.795 11.794s-5.28 11.79-11.794 11.79M256 239.74c-57.513 0-104.134 46.617-104.134 104.13C151.866 401.376 198.486 448 256 448c57.512 0 104.134-46.624 104.134-104.13 0-57.514-46.622-104.131-104.134-104.131" fill="#d81f2d"/></svg>